<svg xmlns:dc="http://purl.org/dc/elements/1.1/" xmlns:cc="http://creativecommons.org/ns#" xmlns:rdf="http://www.w3.org/1999/02/22-rdf-syntax-ns#" xmlns:svg="http://www.w3.org/2000/svg" xmlns="http://www.w3.org/2000/svg" xmlns:sodipodi="http://sodipodi.sourceforge.net/DTD/sodipodi-0.dtd" xmlns:inkscape="http://www.inkscape.org/namespaces/inkscape" version="1.1" x="0px" y="0px" viewBox="0 0 100 100"><g transform="translate(0,-952.36218)"><path style="text-indent:0;text-transform:none;direction:ltr;block-progression:tb;baseline-shift:baseline;color:#000000;enable-background:accumulate;" d="m 85.038623,967.32353 c -3.029951,-3.02995 -8.137958,-3.17575 -11.313706,0 L 58.610529,982.43792 28.801536,972.03021 a 1.0001,1.0001 0 0 0 -1.038524,0.24303 l -8.485363,8.48537 a 1.0001,1.0001 0 0 0 0.198915,1.56885 l 25.742947,14.9158 -17.14736,17.14744 -10.142526,-0.685 a 1.0001,1.0001 0 0 0 -0.773414,0.2872 l -4.242663,4.2427 a 1.0001,1.0001 0 0 0 0.132596,1.5025 l 11.181095,8.397 8.396989,11.1811 a 1.0001,1.0001 0 0 0 1.502515,0.1326 l 4.242665,-4.2427 a 1.0001,1.0001 0 0 0 0.287212,-0.7734 l -0.684986,-10.1425 17.147335,-17.1474 14.915551,25.7431 a 1.0001,1.0001 0 0 0 1.568887,0.1989 l 8.485353,-8.4854 a 1.0001,1.0001 0 0 0 0.243021,-1.0385 L 69.924087,993.75189 85.038474,978.6375 c 3.175766,-3.17576 3.030022,-8.28368 0,-11.31371 z m -1.414212,1.41422 c 2.258287,2.25828 2.395387,6.08989 0,8.48528 L 68.06808,992.77936 a 1.0001,1.0001 0 0 0 -0.220969,1.01646 l 10.407704,29.80908 -7.137407,7.1374 -14.915476,-25.7432 a 1.0001,1.0001 0 0 0 -1.568936,-0.1989 l -18.384743,18.3848 a 1.0001,1.0001 0 0 0 -0.287266,0.7735 l 0.68496,10.1426 -3.115617,3.1155 -7.778242,-10.3856 a 1.0001,1.0001 0 0 0 -0.220839,-0.221 l -10.385592,-7.7783 3.115616,-3.1156 10.142553,0.6849 a 1.0001,1.0001 0 0 0 0.773413,-0.2872 l 18.384794,-18.38484 a 1.0001,1.0001 0 0 0 -0.19887,-1.5688 l -25.742942,-14.9159 7.137371,-7.13735 29.808994,10.4077 a 1.0001,1.0001 0 0 0 1.016465,-0.22097 L 75.13938,968.73731 c 2.395402,-2.3954 6.227062,-2.25821 8.48528,10e-6 z" fill="#000000" fill-opacity="1" stroke="none" marker="none" visibility="visible" display="inline" overflow="visible"></path></g></svg>