<svg xmlns="http://www.w3.org/2000/svg" xmlns:xlink="http://www.w3.org/1999/xlink" version="1.1" x="0px" y="0px" viewBox="0 0 100 100" enable-background="new 0 0 100 100" xml:space="preserve"><g><path d="M24.968,69.319H11.167v2h77.666v-2H74.52c2.337-1.105,4.202-3.051,5.201-5.446c5.151-0.79,9.112-5.239,9.112-10.609   c0-5.928-4.822-10.75-10.75-10.75h-5.166v-7.833c0-3.168-2.469-5.764-5.584-5.979v-0.021h-0.406c-0.004,0-0.006,0-0.01,0   c-0.002,0-0.004,0-0.006,0h-5.244H38.702l-6.299,13.226l-9.218-9.219l-1.414,1.414l8.411,8.412h-8.266   c-5.928,0-10.75,4.822-10.75,10.75c0,5.174,3.68,9.49,8.557,10.507C20.712,66.213,22.598,68.198,24.968,69.319z M20.959,59.864   c0-4.661,3.793-8.453,8.454-8.453c4.662,0,8.454,3.792,8.454,8.453c0,4.662-3.792,8.455-8.454,8.455   C24.752,68.319,20.959,64.526,20.959,59.864z M61.251,42.514H34.33l5.635-11.833h21.286V42.514z M70.917,42.514h-7.666V30.681   h3.666h0.143c0.001,0.005,0.002,0.01,0.002,0.014c2.138,0.078,3.855,1.83,3.855,3.986V42.514z M80.522,59.864   c0-5.764-4.689-10.453-10.453-10.453c-5.766,0-10.455,4.689-10.455,10.453c0,0.737,0.079,1.455,0.225,2.149H39.644   c0.146-0.694,0.224-1.412,0.224-2.149c0-5.764-4.689-10.453-10.454-10.453s-10.454,4.689-10.454,10.453   c0,0.571,0.059,1.128,0.147,1.674c-3.449-1.172-5.939-4.434-5.939-8.274c0-4.825,3.925-8.75,8.75-8.75h56.166   c4.825,0,8.75,3.925,8.75,8.75c0,4.04-2.755,7.438-6.482,8.439C80.458,61.104,80.522,60.492,80.522,59.864z M70.069,68.319   c-4.662,0-8.455-3.793-8.455-8.455c0-4.661,3.793-8.453,8.455-8.453c4.661,0,8.453,3.792,8.453,8.453   C78.522,64.526,74.73,68.319,70.069,68.319z M65.615,69.319H33.867c2.289-1.084,4.125-2.976,5.137-5.306h21.474   C61.49,66.344,63.325,68.235,65.615,69.319z"></path><rect x="43.417" y="47.431" width="7.584" height="2"></rect></g></svg>