<svg fill="#FFFFFF" xmlns:dc="http://purl.org/dc/elements/1.1/" xmlns:cc="http://creativecommons.org/ns#" xmlns:rdf="http://www.w3.org/1999/02/22-rdf-syntax-ns#" xmlns:svg="http://www.w3.org/2000/svg" xmlns="http://www.w3.org/2000/svg" xmlns:sodipodi="http://sodipodi.sourceforge.net/DTD/sodipodi-0.dtd" xmlns:inkscape="http://www.inkscape.org/namespaces/inkscape" version="1.1" x="0px" y="0px" viewBox="0 0 100 100"><g transform="translate(0,-952.36218)"><path style="text-indent:0;text-transform:none;direction:ltr;block-progression:tb;baseline-shift:baseline;color:#000000;enable-background:accumulate;" d="m 17,956.36216 a 1.0001,1.0001 0 0 0 -1,1 l 0,90.00004 a 1.0001,1.0001 0 0 0 1,1 l 66,0 a 1.0001,1.0001 0 0 0 1,-1 l 0,-90.00004 a 1.0001,1.0001 0 0 0 -1,-1 l -66,0 z m 1,2 64,0 0,88.00004 -19,0 0,-21 a 1.0001,1.0001 0 0 0 -1,-1 l -24,0 a 1.0001,1.0001 0 0 0 -1,1 l 0,21 -19,0 0,-88.00004 z m 5,4 a 1.0001,1.0001 0 0 0 -1,1 l 0,14 a 1.0001,1.0001 0 0 0 1,1 l 14,0 a 1.0001,1.0001 0 0 0 1,-1 l 0,-14 a 1.0001,1.0001 0 0 0 -1,-1 l -14,0 z m 20,0 a 1.0001,1.0001 0 0 0 -1,1 l 0,14 a 1.0001,1.0001 0 0 0 1,1 l 14,0 a 1.0001,1.0001 0 0 0 1,-1 l 0,-14 a 1.0001,1.0001 0 0 0 -1,-1 l -14,0 z m 20,0 a 1.0001,1.0001 0 0 0 -1,1 l 0,14 a 1.0001,1.0001 0 0 0 1,1 l 14,0 a 1.0001,1.0001 0 0 0 1,-1 l 0,-14 a 1.0001,1.0001 0 0 0 -1,-1 l -14,0 z m -39,2 12,0 0,12 -12,0 0,-12 z m 20,0 12,0 0,12 -12,0 0,-12 z m 20,0 12,0 0,12 -12,0 0,-12 z m -41,18 a 1.0001,1.0001 0 0 0 -1,1 l 0,14 a 1.0001,1.0001 0 0 0 1,1 l 14,0 a 1.0001,1.0001 0 0 0 1,-1 l 0,-14 a 1.0001,1.0001 0 0 0 -1,-1 l -14,0 z m 20,0 a 1.0001,1.0001 0 0 0 -1,1 l 0,14 a 1.0001,1.0001 0 0 0 1,1 l 14,0 a 1.0001,1.0001 0 0 0 1,-1 l 0,-14 a 1.0001,1.0001 0 0 0 -1,-1 l -14,0 z m 20,0 a 1.0001,1.0001 0 0 0 -1,1 l 0,14 a 1.0001,1.0001 0 0 0 1,1 l 14,0 a 1.0001,1.0001 0 0 0 1,-1 l 0,-14 a 1.0001,1.0001 0 0 0 -1,-1 l -14,0 z m -39,2 12,0 0,12 -12,0 0,-12 z m 20,0 12,0 0,12 -12,0 0,-12 z m 20,0 12,0 0,12 -12,0 0,-12 z m -41,18.00004 a 1.0001,1.0001 0 0 0 -1,1 l 0,14 a 1.0001,1.0001 0 0 0 1,1 l 14,0 a 1.0001,1.0001 0 0 0 1,-1 l 0,-14 a 1.0001,1.0001 0 0 0 -1,-1 l -14,0 z m 20,0 a 1.0001,1.0001 0 0 0 -1,1 l 0,14 a 1.0001,1.0001 0 0 0 1,1 l 14,0 a 1.0001,1.0001 0 0 0 1,-1 l 0,-14 a 1.0001,1.0001 0 0 0 -1,-1 l -14,0 z m 20,0 a 1.0001,1.0001 0 0 0 -1,1 l 0,14 a 1.0001,1.0001 0 0 0 1,1 l 14,0 a 1.0001,1.0001 0 0 0 1,-1 l 0,-14 a 1.0001,1.0001 0 0 0 -1,-1 l -14,0 z m -39,2 12,0 0,12 -12,0 0,-12 z m 20,0 12,0 0,12 -12,0 0,-12 z m 20,0 12,0 0,12 -12,0 0,-12 z m -25,22 10,0 0,20 -10,0 0,-20 z m 12,0 10,0 0,20 -10,0 0,-20 z" fill="#FFFFFF" fill-opacity="1" stroke="none" marker="none" visibility="visible" display="inline" overflow="visible"></path></g></svg>