<svg xmlns="http://www.w3.org/2000/svg" xmlns:xlink="http://www.w3.org/1999/xlink" version="1.1" x="0px" y="0px" viewBox="0 0 100 100" style="enable-background:new 0 0 100 100;" xml:space="preserve"><path d="M22.4,80h57.1c3.6,0,6.6-2.9,6.6-6.6V36.3c0-3.6-2.9-6.6-6.6-6.6H65.5v-3.6c0-3.7-3-6.8-6.8-6.8H41.9c-3.7,0-6.8,3-6.8,6.8  v3.6H22.4c-3.6,0-6.6,2.9-6.6,6.6v37.1C15.9,77.1,18.8,80,22.4,80z M65.5,31.7H70V78h-4.5V31.7z M63.5,78H37.2V31.7h26.3V78z   M35.2,78h-4.5V31.7h4.5V78z M84.1,36.3v37.1c0,2.5-2,4.6-4.6,4.6H72V31.7h7.6C82.1,31.7,84.1,33.8,84.1,36.3z M37.2,26.2  c0-2.6,2.1-4.8,4.8-4.8h16.8c2.6,0,4.8,2.1,4.8,4.8v3.6H37.2V26.2z M17.9,36.3c0-2.5,2-4.6,4.6-4.6h6.2V78h-6.2  c-2.5,0-4.6-2-4.6-4.6V36.3z"></path><path d="M45.5,38.8h9c0.6,0,1-0.4,1-1s-0.4-1-1-1h-9c-0.6,0-1,0.4-1,1S44.9,38.8,45.5,38.8z"></path></svg>